<?xml version="1.0" standalone="no"?>
<!DOCTYPE svg PUBLIC "-//W3C//DTD SVG 20010904//EN"
 "http://www.w3.org/TR/2001/REC-SVG-20010904/DTD/svg10.dtd">
<svg version="1.0" xmlns="http://www.w3.org/2000/svg"
 width="700.000000pt" height="700.000000pt" viewBox="0 0 700.000000 700.000000"
 preserveAspectRatio="xMidYMid meet">
<metadata>
Created by potrace 1.11, written by Peter Selinger 2001-2013
</metadata>
<g transform="translate(0.000000,700.000000) scale(0.100000,-0.100000)"
fill="#000000" stroke="none">
<path d="M3500 5578 l0 -769 110 2 110 2 0 466 c-1 256 -1 548 0 647 l0 181
28 -3 c15 -1 47 -6 72 -9 25 -4 61 -9 80 -11 208 -28 501 -118 708 -217 95
-45 250 -131 327 -182 146 -96 283 -210 425 -354 129 -132 134 -137 217 -247
284 -373 449 -773 518 -1254 25 -181 24 -490 -5 -686 -11 -81 -33 -196 -44
-232 -3 -9 -7 -28 -10 -42 -8 -47 -44 -165 -79 -260 -81 -220 -163 -381 -295
-575 -183 -269 -412 -501 -682 -687 -324 -225 -723 -382 -1100 -433 -14 -2
-43 -6 -65 -9 -131 -18 -386 -24 -530 -11 -98 8 -295 38 -337 51 -10 3 -30 8
-45 10 -29 5 -118 30 -213 59 -240 74 -538 231 -764 402 -130 99 -158 124
-299 268 -198 201 -344 408 -472 670 -115 234 -170 397 -221 654 -36 184 -44
274 -43 496 0 173 2 212 13 300 4 28 8 65 11 83 2 18 6 45 9 60 3 15 8 39 11
55 13 69 17 88 41 174 30 112 92 294 105 308 5 5 9 14 9 21 0 40 154 325 256
472 54 78 178 238 203 262 3 3 28 29 55 57 l49 52 -81 83 -81 83 -22 -25 c-13
-14 -45 -50 -73 -80 -208 -227 -384 -499 -506 -783 -73 -171 -155 -429 -175
-552 -2 -11 -8 -45 -14 -75 -11 -55 -14 -76 -25 -180 -15 -129 -17 -163 -17
-316 -1 -194 11 -339 41 -499 5 -27 12 -61 14 -75 36 -208 132 -481 251 -715
59 -117 184 -327 205 -345 3 -3 17 -21 30 -40 13 -19 49 -66 80 -105 178 -224
396 -424 645 -590 415 -276 863 -431 1365 -471 90 -7 362 -7 435 1 95 9 210
24 245 30 14 3 36 7 50 10 53 10 159 32 188 39 317 80 670 246 957 451 39 27
72 52 75 55 3 3 17 15 32 26 92 71 241 212 353 335 85 93 255 319 255 339 0 5
4 10 9 10 5 0 11 8 15 18 3 9 24 46 46 82 172 275 327 718 365 1040 3 25 7 56
10 70 21 122 21 550 -1 664 -2 10 -6 44 -10 75 -3 31 -8 58 -9 61 -2 3 -6 26
-10 50 -14 97 -85 366 -115 435 -4 11 -18 47 -30 80 -39 104 -165 356 -231
460 -277 441 -650 788 -1102 1025 -139 73 -249 120 -396 171 -107 37 -313 91
-391 104 -19 3 -46 7 -60 10 -14 3 -47 7 -75 11 -27 3 -59 8 -69 10 -11 2 -72
6 -135 10 -64 3 -133 7 -153 8 l-38 2 0 -768z"/>
<path d="M2060 4934 c0 -16 106 -177 245 -374 119 -168 386 -538 499 -692 72
-97 196 -265 276 -374 80 -108 162 -214 183 -235 105 -106 285 -129 409 -52
106 65 162 162 164 288 2 69 -2 88 -26 140 -15 33 -47 81 -71 106 -44 45 -456
352 -949 705 -140 101 -259 187 -265 191 -31 25 -197 140 -311 216 -120 79
-154 97 -154 81z"/>
</g>
</svg>
