<?xml version="1.0" ?><svg data-name="Layer 1" id="Layer_1" viewBox="0 0 140 140" xmlns="http://www.w3.org/2000/svg"><defs><style>.cls-1{fill:#52b1b1;}.cls-2{fill:#525354;}.cls-3{fill:#fff;}.cls-4{fill:#ccbeb0;}</style></defs><title/><circle class="cls-1" cx="70" cy="70" r="64"/><path class="cls-2" d="M97,36V29a1,1,0,0,0-1-1H46a1,1,0,0,0-1,1v7a1,1,0,0,0,1,1h5c-1,3.1-1,6.84-1,11,0,7.3,8.31,16.89,14.48,23C58.31,77.11,50,86.7,50,94c0,4.16,0,7.9,1,11H46a1,1,0,0,0-1,1v7a1,1,0,0,0,1,1H96a1,1,0,0,0,1-1v-7a1,1,0,0,0-1-1H91c1-3.1,1-6.84,1-11,0-7.3-8.31-16.89-14.48-23C83.69,64.89,92,55.3,92,48c0-4.16,0-7.9-1-11h5A1,1,0,0,0,97,36Z"/><path class="cls-3" d="M96,35V28a1,1,0,0,0-1-1H45a1,1,0,0,0-1,1v7a1,1,0,0,0,1,1h5c-1,3.1-1,6.84-1,11,0,7.3,8.31,16.89,14.48,23C57.31,76.11,49,85.7,49,93c0,4.16,0,7.9,1,11H45a1,1,0,0,0-1,1v7a1,1,0,0,0,1,1H95a1,1,0,0,0,1-1v-7a1,1,0,0,0-1-1H90c1-3.1,1-6.84,1-11,0-7.3-8.31-16.89-14.48-23C82.69,63.89,91,54.3,91,47c0-4.16,0-7.9-1-11h5A1,1,0,0,0,96,35Z"/><path class="cls-1" d="M87.34,47C87.34,56.59,70,71,70,71S52.66,56.59,52.66,47,52.66,30.5,70,30.5,87.34,37.44,87.34,47Z"/><path class="cls-1" d="M87.34,93C87.34,83.41,70,69,70,69S52.66,83.41,52.66,93s0,16.51,17.34,16.51S87.34,102.56,87.34,93Z"/><path class="cls-4" d="M87.13,99.09c0,.31-.07.61-.12.91-.9,5.77-4.29,9.5-17,9.5s-16.11-3.73-17-9.5c0-.3-.09-.6-.12-.91,3.45-7.68,13.9-16.26,16.48-18.49a1,1,0,0,1,1.3,0C73.23,82.83,83.68,91.41,87.13,99.09Z"/><path class="cls-4" d="M86.51,51c-3,7.9-13.18,17.08-15.86,19.4a1,1,0,0,1-1.3,0C66.67,68.08,56.47,58.9,53.49,51Z"/></svg>